<svg xmlns="http://www.w3.org/2000/svg" viewBox="0 0 178.55 42.94"><defs><style>.a{fill:#2c1b12;}.b{fill:#f4f2f0;}.c{fill:#5f3f27;}</style></defs><path class="a" d="M76.65,12.89c.83-1.8,4-3.3,1.81-5.48-1.88-1.82-4.06.49-6,1.32a6.75,6.75,0,0,0-1.23.85c-4,3-4,7.17,0,10.2A30.18,30.18,0,0,0,76.7,23c2.22,1,1.71,1.76.19,3.07-2.2,1.89-5.18,1.33-7.54,2.65,3.19,4.48,7.3,5.34,11.84,2.54,3.25-2,3.87-5.17,1.58-8.26a16.08,16.08,0,0,0-7.15-5.22c-2.75-1.12-3.27-2.33-.49-4,.76.88.88,2.49,2.51,2.38.44,0,1.16-.41,1.21-.71C79.07,13.79,76.56,14.48,76.65,12.89ZM56.78,10.68c1.5.59,2.36,1.41,3.72.59C59.46,10.11,58.4,10.52,56.78,10.68Zm30,4.75c-.28-.63-.63-1-1.19-.81a1,1,0,0,0-.44.84.75.75,0,0,0,1.09.65C86.46,16,86.6,15.63,86.75,15.43Z"/><path class="b" d="M0,23.14C.25,19.43.35,15.69.79,12,1.69,4.51,5.51.94,13,.53,18.21.25,23.43.17,28.65,0L34,.08a18.75,18.75,0,0,0,6.64,0l3.09.51,0,.11c.2,3.21-1.45,6-2.19,8.94Q40.06,12.3,38.61,15c-5,8.62-12.54,12.34-22.47,11.39-1.58-.15-3.25-.29-4.72.63-.6-.11-1.11,0-1.32.65-2.6,2.28-1.58,5-.73,7.54.38,1.17,1.55,1.52,2.75,1.56,1.42,0,1.93-.89,2.27-2,.49-1.61.62-4.15,3-3.43,3,.92,2.52,3.57,1.52,5.91a9.32,9.32,0,0,1-8.07,5.77c-3.21.15-6-2.26-7.89-5.29C.07,33.12.35,28.1,0,23.14Zm16-6.4c-.29-1-.83-1.86-2.05-1.73a1.67,1.67,0,0,0-1.58,1.78,1.74,1.74,0,0,0,2,1.75C15.37,18.46,15.79,17.67,16,16.74Z"/><path class="b" d="M136.57,6.71a27.29,27.29,0,0,1,9.36,1.47c3,1.19,5,3.08,4.62,6.62-1.78,3.42-5.13,4.41-9,5.28C144,22.31,146,24.2,148,26.15a8.19,8.19,0,0,1,1.87,2.3c.43,1,1,2.16,0,3.13-1.47,1.41-2-.72-3.05-.92-.58-1.34-1.8-1.95-3-2.6l-.07-.18-.19,0c-.3-.28-.45-.92-1.07-.44l-1.33-.67-.63-.66-.28.72a10.15,10.15,0,0,1-2.13,5.34,3.21,3.21,0,0,1-3.09,1.2c-1.5-.36-.49-1.62-.68-2.45a19.33,19.33,0,0,1-.22-2.54c.59-5.53-.6-11-.87-16.46,0-.49.23-1.21,0-1.43-2.27-2.09-.76-2.72,1.18-3.22Zm4.68,4.17c-1.88.1-1.7,2.26-2.24,3.65a1.76,1.76,0,0,0,1.14,2.36c.62.17,4.66-4.05,4.46-4.67C144.15,10.82,142.83,11.17,141.25,10.88Z"/><path class="b" d="M163.71,21c.91-3.58,1.94-7.15,2.71-10.76.4-1.88.55-3.87,2.87-4.21s3.51,1.31,4.28,3a40.55,40.55,0,0,1,4.1,13.08,12.55,12.55,0,0,0,.48,1.77c.13,1.73.25,3.45.38,5.17.11,1.49-.23,3-1.85,3.14s-3.58.05-4.18-2.16c-.38-1.42-.72-2.85-1.08-4.27-3-.11-4.58,1.79-5.84,4.18-.56,1.06-1.14,2.49-2.69,2s-.42-1.89-.65-2.85C161.56,26.2,163,23.69,163.71,21Z"/><path class="b" d="M101,21c.34,2.34.8,4.66,1,7,.13,1.7.31,3.88-2,4.22-2.06.31-4-.46-4.29-3a2,2,0,0,0-.25-.7c-.53-.89.28-2.85-1.18-2.7s-3.34.2-4,2.19a8.4,8.4,0,0,1-1.11,1.91c-.82,1.25-1.71,2.85-3.47,2s0-2.23.08-3.37c.34-6.72,3.52-12.8,4.3-19.4a3.2,3.2,0,0,1,2.38-2.95c1.53-.51,2.46.3,3.21,1.26,1,1.23,2.4,2.13,2.7,3.81C98.33,14.67,101.17,17.4,101,21Z"/><path class="b" d="M119.82,9c1.66-3.88,4.45-4.27,7-1,.58.76,1.07,1.6,1.6,2.41,0,.46,0,.86.57.9h-.06q1.88,8.57,3.74,17.12c-.33,1.63-.1,3.73-2.56,3.81a3.69,3.69,0,0,1-4.13-3.37c-.21-1.08.26-3-1.36-3a4,4,0,0,0-4,2.19c-.79,1.64-1.66,4.64-3.83,3.76s-.71-3.51-.26-5.43c.77-3.31,1.41-6.66,2.1-10C119.29,14,121.12,11.7,119.82,9Z"/><path class="b" d="M101.46,9.54c1.27-2.49,3.78-1.21,5.63-1.62,3.46-.75,7.11-1.22,10.57.39,1.65,4.6-2.26,3.62-4.39,4.22-1.57.44-3,1-2.91,2.77.14,2.16,2,.41,2.94.92a4.33,4.33,0,0,0,1.47.2c2.29,2.51,2.2,3.94-.86,4.95-2.37.78-2.61,2.13-2.78,4.2-.21,2.45.08,5.14-2.9,6.73-2.39,1.28-2.82.29-3-1.65-.36-3.51-.66-7-1-10.52C104.68,16.24,104.55,12.51,101.46,9.54Z"/><path class="b" d="M75.13,13.71c-2.78,1.71-2.26,2.92.49,4A16.08,16.08,0,0,1,82.77,23c2.29,3.09,1.67,6.25-1.58,8.26-4.54,2.8-8.65,1.94-11.84-2.54,2.36-1.32,5.34-.76,7.54-2.65,1.52-1.31,2-2-.19-3.07a30.18,30.18,0,0,1-5.47-3.19c-4-3-4-7.16,0-10.2a6.75,6.75,0,0,1,1.23-.85c2-.83,4.14-3.14,6-1.32,2.24,2.18-1,3.68-1.81,5.48C75.88,12.68,75.54,13.27,75.13,13.71Z"/><path class="b" d="M153,14.19c.05-1.34.08-2.67.16-4s.32-2.8,2.18-2.79,3.62.39,4,2.47c.45,2.39.54,4.84.79,7.27-.23,3.72-.42,7.44-.73,11.15-.18,2.27-1.33,3.63-3.84,3.58s-2-2.31-2.13-3.53C153.1,23.63,153.13,18.91,153,14.19Z"/><path class="c" d="M75.13,13.71c.41-.44.75-1,1.52-.82-.09,1.59,2.42.9,2.2,2.49,0,.3-.77.68-1.21.71C76,16.2,75.89,14.59,75.13,13.71Z"/><path class="c" d="M129,11.32c-.6,0-.62-.44-.57-.9Z"/><path class="c" d="M140.27,26.81l.28-.72.63.66Z"/></svg>